<mxfile host="Electron" modified="2023-06-11T06:56:53.655Z" agent="Mozilla/5.0 (Windows NT 10.0; Win64; x64) AppleWebKit/537.36 (KHTML, like Gecko) draw.io/21.2.8 Chrome/112.0.5615.165 Electron/24.2.0 Safari/537.36" etag="bH74FyDuuTNSPXsLQbL5" version="21.2.8" type="device">
  <diagram name="Страница 1" id="OSn083bQH17FaPXFYNqJ">
    <mxGraphModel dx="1502" dy="671" grid="1" gridSize="10" guides="1" tooltips="1" connect="1" arrows="1" fold="1" page="1" pageScale="1" pageWidth="1654" pageHeight="1169" background="none" math="0" shadow="1">
      <root>
        <mxCell id="0" />
        <mxCell id="1" parent="0" />
        <mxCell id="HYofJyGd89xa3vz6gatz-1" value="conversation_id" style="rounded=0;whiteSpace=wrap;html=1;fontSize=16;strokeColor=#33FFFF;" parent="1" vertex="1">
          <mxGeometry x="80" y="160" width="120" height="80" as="geometry" />
        </mxCell>
        <mxCell id="HYofJyGd89xa3vz6gatz-2" value="initiator_id" style="rounded=0;whiteSpace=wrap;html=1;fontSize=16;strokeColor=#33FFFF;" parent="1" vertex="1">
          <mxGeometry x="200" y="160" width="120" height="80" as="geometry" />
        </mxCell>
        <mxCell id="HYofJyGd89xa3vz6gatz-4" value="&lt;font style=&quot;font-size: 20px;&quot;&gt;conversations&lt;/font&gt;" style="rounded=0;whiteSpace=wrap;html=1;fontSize=16;strokeColor=#33FFFF;" parent="1" vertex="1">
          <mxGeometry x="80" y="80" width="480" height="80" as="geometry" />
        </mxCell>
        <mxCell id="HYofJyGd89xa3vz6gatz-5" value="title" style="rounded=0;whiteSpace=wrap;html=1;fontSize=16;strokeColor=#33FFFF;" parent="1" vertex="1">
          <mxGeometry x="440" y="160" width="120" height="80" as="geometry" />
        </mxCell>
        <mxCell id="HYofJyGd89xa3vz6gatz-7" value="" style="shape=curlyBracket;whiteSpace=wrap;html=1;rounded=1;labelPosition=left;verticalLabelPosition=middle;align=right;verticalAlign=middle;fontSize=16;direction=north;" parent="1" vertex="1">
          <mxGeometry x="80" y="240" width="240" height="20" as="geometry" />
        </mxCell>
        <mxCell id="HYofJyGd89xa3vz6gatz-9" value="Partition key" style="text;html=1;align=center;verticalAlign=middle;resizable=0;points=[];autosize=1;strokeColor=none;fillColor=none;fontSize=16;" parent="1" vertex="1">
          <mxGeometry x="145" y="260" width="110" height="30" as="geometry" />
        </mxCell>
        <mxCell id="HYofJyGd89xa3vz6gatz-10" value="created_at" style="rounded=0;whiteSpace=wrap;html=1;fontSize=16;strokeColor=#33FFFF;" parent="1" vertex="1">
          <mxGeometry x="320" y="160" width="120" height="80" as="geometry" />
        </mxCell>
        <mxCell id="HYofJyGd89xa3vz6gatz-12" value="&lt;font style=&quot;font-size: 20px;&quot;&gt;conversations_to_users&lt;/font&gt;" style="rounded=0;whiteSpace=wrap;html=1;fontSize=16;strokeColor=#33FFFF;" parent="1" vertex="1">
          <mxGeometry x="80" y="360" width="480" height="80" as="geometry" />
        </mxCell>
        <mxCell id="HYofJyGd89xa3vz6gatz-13" value="conversation_id" style="rounded=0;whiteSpace=wrap;html=1;fontSize=16;strokeColor=#33FFFF;" parent="1" vertex="1">
          <mxGeometry x="80" y="440" width="120" height="80" as="geometry" />
        </mxCell>
        <mxCell id="HYofJyGd89xa3vz6gatz-14" value="initiator_id" style="rounded=0;whiteSpace=wrap;html=1;fontSize=16;strokeColor=#33FFFF;" parent="1" vertex="1">
          <mxGeometry x="200" y="440" width="120" height="80" as="geometry" />
        </mxCell>
        <mxCell id="HYofJyGd89xa3vz6gatz-15" value="" style="shape=curlyBracket;whiteSpace=wrap;html=1;rounded=1;labelPosition=left;verticalLabelPosition=middle;align=right;verticalAlign=middle;fontSize=16;direction=north;" parent="1" vertex="1">
          <mxGeometry x="80" y="520" width="240" height="20" as="geometry" />
        </mxCell>
        <mxCell id="HYofJyGd89xa3vz6gatz-16" value="Partition key" style="text;html=1;align=center;verticalAlign=middle;resizable=0;points=[];autosize=1;strokeColor=none;fillColor=none;fontSize=16;" parent="1" vertex="1">
          <mxGeometry x="145" y="540" width="110" height="30" as="geometry" />
        </mxCell>
        <mxCell id="HYofJyGd89xa3vz6gatz-17" value="user_id" style="rounded=0;whiteSpace=wrap;html=1;fontSize=16;strokeColor=#33FFFF;" parent="1" vertex="1">
          <mxGeometry x="320" y="440" width="120" height="80" as="geometry" />
        </mxCell>
        <mxCell id="HYofJyGd89xa3vz6gatz-18" value="" style="shape=curlyBracket;whiteSpace=wrap;html=1;rounded=1;labelPosition=left;verticalLabelPosition=middle;align=right;verticalAlign=middle;fontSize=16;direction=north;" parent="1" vertex="1">
          <mxGeometry x="320" y="520" width="120" height="20" as="geometry" />
        </mxCell>
        <mxCell id="HYofJyGd89xa3vz6gatz-19" value="Sort key" style="text;html=1;align=center;verticalAlign=middle;resizable=0;points=[];autosize=1;strokeColor=none;fillColor=none;fontSize=16;" parent="1" vertex="1">
          <mxGeometry x="340" y="540" width="80" height="30" as="geometry" />
        </mxCell>
        <mxCell id="HYofJyGd89xa3vz6gatz-20" value="conversation_&lt;br&gt;role" style="rounded=0;whiteSpace=wrap;html=1;fontSize=16;strokeColor=#33FFFF;" parent="1" vertex="1">
          <mxGeometry x="440" y="440" width="120" height="80" as="geometry" />
        </mxCell>
        <mxCell id="HYofJyGd89xa3vz6gatz-21" value="" style="shape=curlyBracket;whiteSpace=wrap;html=1;rounded=1;labelPosition=left;verticalLabelPosition=middle;align=right;verticalAlign=middle;fontSize=16;direction=north;" parent="1" vertex="1">
          <mxGeometry x="320" y="240" width="120" height="20" as="geometry" />
        </mxCell>
        <mxCell id="HYofJyGd89xa3vz6gatz-22" value="Sort key&lt;br&gt;Descending" style="text;html=1;align=center;verticalAlign=middle;resizable=0;points=[];autosize=1;strokeColor=none;fillColor=none;fontSize=16;" parent="1" vertex="1">
          <mxGeometry x="325" y="260" width="110" height="50" as="geometry" />
        </mxCell>
        <mxCell id="HYofJyGd89xa3vz6gatz-23" value="&lt;font style=&quot;font-size: 20px;&quot;&gt;users_to_conversations&lt;/font&gt;" style="rounded=0;whiteSpace=wrap;html=1;fontSize=16;strokeColor=#33FFFF;" parent="1" vertex="1">
          <mxGeometry x="80" y="640" width="480" height="80" as="geometry" />
        </mxCell>
        <mxCell id="HYofJyGd89xa3vz6gatz-24" value="conversation_id" style="rounded=0;whiteSpace=wrap;html=1;fontSize=16;strokeColor=#33FFFF;" parent="1" vertex="1">
          <mxGeometry x="200" y="720" width="120" height="80" as="geometry" />
        </mxCell>
        <mxCell id="HYofJyGd89xa3vz6gatz-25" value="initiator_id" style="rounded=0;whiteSpace=wrap;html=1;fontSize=16;strokeColor=#33FFFF;" parent="1" vertex="1">
          <mxGeometry x="320" y="720" width="120" height="80" as="geometry" />
        </mxCell>
        <mxCell id="HYofJyGd89xa3vz6gatz-26" value="" style="shape=curlyBracket;whiteSpace=wrap;html=1;rounded=1;labelPosition=left;verticalLabelPosition=middle;align=right;verticalAlign=middle;fontSize=16;direction=north;" parent="1" vertex="1">
          <mxGeometry x="200" y="800" width="240" height="20" as="geometry" />
        </mxCell>
        <mxCell id="HYofJyGd89xa3vz6gatz-27" value="user_id" style="rounded=0;whiteSpace=wrap;html=1;fontSize=16;strokeColor=#33FFFF;" parent="1" vertex="1">
          <mxGeometry x="80" y="720" width="120" height="80" as="geometry" />
        </mxCell>
        <mxCell id="HYofJyGd89xa3vz6gatz-28" value="" style="shape=curlyBracket;whiteSpace=wrap;html=1;rounded=1;labelPosition=left;verticalLabelPosition=middle;align=right;verticalAlign=middle;fontSize=16;direction=north;" parent="1" vertex="1">
          <mxGeometry x="80" y="800" width="120" height="20" as="geometry" />
        </mxCell>
        <mxCell id="HYofJyGd89xa3vz6gatz-29" value="conversation_&lt;br&gt;role" style="rounded=0;whiteSpace=wrap;html=1;fontSize=16;strokeColor=#33FFFF;" parent="1" vertex="1">
          <mxGeometry x="440" y="720" width="120" height="80" as="geometry" />
        </mxCell>
        <mxCell id="HYofJyGd89xa3vz6gatz-30" value="Sort key" style="text;html=1;align=center;verticalAlign=middle;resizable=0;points=[];autosize=1;strokeColor=none;fillColor=none;fontSize=16;" parent="1" vertex="1">
          <mxGeometry x="280" y="820" width="80" height="30" as="geometry" />
        </mxCell>
        <mxCell id="HYofJyGd89xa3vz6gatz-31" value="Partition key" style="text;html=1;align=center;verticalAlign=middle;resizable=0;points=[];autosize=1;strokeColor=none;fillColor=none;fontSize=16;" parent="1" vertex="1">
          <mxGeometry x="85" y="820" width="110" height="30" as="geometry" />
        </mxCell>
        <mxCell id="jQwWjpldLmfRckowhP1a-10" value="conversation_id" style="rounded=0;whiteSpace=wrap;html=1;fontSize=16;strokeColor=#33FFFF;" parent="1" vertex="1">
          <mxGeometry x="720" y="160" width="120" height="80" as="geometry" />
        </mxCell>
        <mxCell id="jQwWjpldLmfRckowhP1a-11" value="initiator_id" style="rounded=0;whiteSpace=wrap;html=1;fontSize=16;strokeColor=#33FFFF;" parent="1" vertex="1">
          <mxGeometry x="840" y="160" width="120" height="80" as="geometry" />
        </mxCell>
        <mxCell id="jQwWjpldLmfRckowhP1a-12" value="&lt;font style=&quot;font-size: 20px;&quot;&gt;messages&lt;/font&gt;" style="rounded=0;whiteSpace=wrap;html=1;fontSize=16;strokeColor=#33FFFF;" parent="1" vertex="1">
          <mxGeometry x="720" y="80" width="600" height="80" as="geometry" />
        </mxCell>
        <mxCell id="jQwWjpldLmfRckowhP1a-13" value="title" style="rounded=0;whiteSpace=wrap;html=1;fontSize=16;strokeColor=#33FFFF;" parent="1" vertex="1">
          <mxGeometry x="1200" y="160" width="120" height="80" as="geometry" />
        </mxCell>
        <mxCell id="jQwWjpldLmfRckowhP1a-14" value="" style="shape=curlyBracket;whiteSpace=wrap;html=1;rounded=1;labelPosition=left;verticalLabelPosition=middle;align=right;verticalAlign=middle;fontSize=16;direction=north;" parent="1" vertex="1">
          <mxGeometry x="720" y="240" width="240" height="20" as="geometry" />
        </mxCell>
        <mxCell id="jQwWjpldLmfRckowhP1a-15" value="Partition key" style="text;html=1;align=center;verticalAlign=middle;resizable=0;points=[];autosize=1;strokeColor=none;fillColor=none;fontSize=16;" parent="1" vertex="1">
          <mxGeometry x="785" y="260" width="110" height="30" as="geometry" />
        </mxCell>
        <mxCell id="jQwWjpldLmfRckowhP1a-16" value="message_id" style="rounded=0;whiteSpace=wrap;html=1;fontSize=16;strokeColor=#33FFFF;" parent="1" vertex="1">
          <mxGeometry x="960" y="160" width="120" height="80" as="geometry" />
        </mxCell>
        <mxCell id="jQwWjpldLmfRckowhP1a-17" value="" style="shape=curlyBracket;whiteSpace=wrap;html=1;rounded=1;labelPosition=left;verticalLabelPosition=middle;align=right;verticalAlign=middle;fontSize=16;direction=north;" parent="1" vertex="1">
          <mxGeometry x="960" y="240" width="120" height="20" as="geometry" />
        </mxCell>
        <mxCell id="jQwWjpldLmfRckowhP1a-18" value="Sort key&lt;br&gt;Descending" style="text;html=1;align=center;verticalAlign=middle;resizable=0;points=[];autosize=1;strokeColor=none;fillColor=none;fontSize=16;" parent="1" vertex="1">
          <mxGeometry x="965" y="260" width="110" height="50" as="geometry" />
        </mxCell>
        <mxCell id="jQwWjpldLmfRckowhP1a-19" value="user_id" style="rounded=0;whiteSpace=wrap;html=1;fontSize=16;strokeColor=#33FFFF;" parent="1" vertex="1">
          <mxGeometry x="720" y="440" width="120" height="80" as="geometry" />
        </mxCell>
        <mxCell id="jQwWjpldLmfRckowhP1a-20" value="initiator_id" style="rounded=0;whiteSpace=wrap;html=1;fontSize=16;strokeColor=#33FFFF;" parent="1" vertex="1">
          <mxGeometry x="1080" y="440" width="120" height="80" as="geometry" />
        </mxCell>
        <mxCell id="jQwWjpldLmfRckowhP1a-21" value="&lt;font style=&quot;font-size: 20px;&quot;&gt;preloaded_conversations&lt;/font&gt;" style="rounded=0;whiteSpace=wrap;html=1;fontSize=16;strokeColor=#33FFFF;" parent="1" vertex="1">
          <mxGeometry x="720" y="360" width="600" height="80" as="geometry" />
        </mxCell>
        <mxCell id="jQwWjpldLmfRckowhP1a-23" value="" style="shape=curlyBracket;whiteSpace=wrap;html=1;rounded=1;labelPosition=left;verticalLabelPosition=middle;align=right;verticalAlign=middle;fontSize=16;direction=north;" parent="1" vertex="1">
          <mxGeometry x="720" y="520" width="120" height="20" as="geometry" />
        </mxCell>
        <mxCell id="jQwWjpldLmfRckowhP1a-24" value="Partition key" style="text;html=1;align=center;verticalAlign=middle;resizable=0;points=[];autosize=1;strokeColor=none;fillColor=none;fontSize=16;" parent="1" vertex="1">
          <mxGeometry x="730" y="540" width="110" height="30" as="geometry" />
        </mxCell>
        <mxCell id="jQwWjpldLmfRckowhP1a-25" value="updated_at" style="rounded=0;whiteSpace=wrap;html=1;fontSize=16;strokeColor=#33FFFF;" parent="1" vertex="1">
          <mxGeometry x="840" y="440" width="120" height="80" as="geometry" />
        </mxCell>
        <mxCell id="jQwWjpldLmfRckowhP1a-26" value="" style="shape=curlyBracket;whiteSpace=wrap;html=1;rounded=1;labelPosition=left;verticalLabelPosition=middle;align=right;verticalAlign=middle;fontSize=16;direction=north;" parent="1" vertex="1">
          <mxGeometry x="840" y="520" width="120" height="20" as="geometry" />
        </mxCell>
        <mxCell id="jQwWjpldLmfRckowhP1a-27" value="Sort key&lt;br&gt;Descending" style="text;html=1;align=center;verticalAlign=middle;resizable=0;points=[];autosize=1;strokeColor=none;fillColor=none;fontSize=16;" parent="1" vertex="1">
          <mxGeometry x="845" y="540" width="110" height="50" as="geometry" />
        </mxCell>
        <mxCell id="jQwWjpldLmfRckowhP1a-29" value="conversation_id" style="rounded=0;whiteSpace=wrap;html=1;fontSize=16;strokeColor=#33FFFF;" parent="1" vertex="1">
          <mxGeometry x="960" y="440" width="120" height="80" as="geometry" />
        </mxCell>
        <mxCell id="rFdq6FkJfRvr7W29YaEb-1" value="timestamp" style="rounded=0;whiteSpace=wrap;html=1;fontSize=16;strokeColor=#33FFFF;" vertex="1" parent="1">
          <mxGeometry x="1080" y="160" width="120" height="80" as="geometry" />
        </mxCell>
        <mxCell id="rFdq6FkJfRvr7W29YaEb-4" value="title" style="rounded=0;whiteSpace=wrap;html=1;fontSize=16;strokeColor=#33FFFF;" vertex="1" parent="1">
          <mxGeometry x="1200" y="440" width="120" height="80" as="geometry" />
        </mxCell>
      </root>
    </mxGraphModel>
  </diagram>
</mxfile>
